Normalized EMG Linear Envelopes
nRows=247
nColumns=4

endheader
time	 med_gas_r	  soleus_r	 tib_ant_r	
3.29335	  0.007149	  0.006283	  0.001552	
3.32661	  0.008340	  0.006204	  0.001571	
3.35988	  0.009336	  0.006106	  0.001589	
3.39315	  0.009789	  0.005997	  0.001605	
3.42641	  0.009391	  0.005907	  0.001620	
3.45968	  0.008376	  0.005851	  0.001630	
3.49294	  0.007104	  0.005821	  0.001633	
3.52621	  0.005855	  0.005820	  0.001631	
3.55948	  0.004797	  0.005855	  0.001631	
3.59274	  0.003998	  0.005921	  0.001634	
3.62601	  0.003460	  0.006018	  0.001641	
3.65927	  0.003145	  0.006144	  0.001653	
3.69254	  0.003001	  0.006284	  0.001665	
3.72581	  0.002981	  0.006419	  0.001673	
3.75907	  0.003032	  0.006524	  0.001679	
3.79234	  0.003115	  0.006577	  0.001682	
3.8256	  0.003207	  0.006546	  0.001685	
3.85887	  0.003302	  0.006438	  0.001688	
3.89214	  0.003395	  0.006287	  0.001692	
3.9254	  0.003478	  0.006129	  0.001696	
3.95867	  0.003545	  0.005984	  0.001696	
3.99194	  0.003584	  0.005871	  0.001688	
4.0252	  0.003591	  0.005790	  0.001673	
4.05847	  0.003567	  0.005735	  0.001655	
4.09173	  0.003525	  0.005703	  0.001638	
4.125	  0.003477	  0.005694	  0.001625	
4.15827	  0.003433	  0.005702	  0.001619	
4.19153	  0.003397	  0.005707	  0.001622	
4.2248	  0.003371	  0.005714	  0.001635	
4.25806	  0.003348	  0.005729	  0.001655	
4.29133	  0.003325	  0.005745	  0.001678	
4.3246	  0.003308	  0.005759	  0.001695	
4.35786	  0.003303	  0.005762	  0.001701	
4.39113	  0.003303	  0.005746	  0.001694	
4.4244	  0.003303	  0.005712	  0.001676	
4.45766	  0.003310	  0.005672	  0.001650	
4.49093	  0.003328	  0.005640	  0.001621	
4.52419	  0.003363	  0.005643	  0.001601	
4.55746	  0.003415	  0.005675	  0.001604	
4.59073	  0.003477	  0.005709	  0.001640	
4.62399	  0.003545	  0.005741	  0.001721	
4.65726	  0.003613	  0.005782	  0.001856	
4.69052	  0.003670	  0.005823	  0.002051	
4.72379	  0.003700	  0.005850	  0.002308	
4.75706	  0.003695	  0.005848	  0.002605	
4.79032	  0.003658	  0.005811	  0.002895	
4.82359	  0.003594	  0.005752	  0.003100	
4.85685	  0.003525	  0.005686	  0.003143	
4.89012	  0.003471	  0.005623	  0.003077	
4.92339	  0.003435	  0.005573	  0.002987	
4.95665	  0.003436	  0.005536	  0.002926	
4.98992	  0.003476	  0.005500	  0.002911	
5.02319	  0.003544	  0.005464	  0.002926	
5.05645	  0.003626	  0.005436	  0.002925	
5.08972	  0.003701	  0.005418	  0.002823	
5.12298	  0.003748	  0.005394	  0.002505	
5.15625	  0.003750	  0.005329	  0.001821	
5.18952	  0.003684	  0.005166	  0.000603	
5.22278	  0.003541	  0.004849	 -0.001320	
5.25605	  0.003340	  0.004329	 -0.004086	
5.28931	  0.003093	  0.003577	 -0.007750	
5.32258	  0.002809	  0.002617	 -0.012192	
5.35585	  0.002498	  0.001527	 -0.017015	
5.38911	  0.002191	  0.000466	 -0.021410	
5.42238	  0.001955	 -0.000295	 -0.024022	
5.45565	  0.001894	 -0.000349	 -0.022820	
5.48891	  0.002138	  0.000865	 -0.015039	
5.52218	  0.002832	  0.004095	  0.002779	
5.55544	  0.004148	  0.010231	  0.034542	
5.58871	  0.006261	  0.020201	  0.084067	
5.62198	  0.009300	  0.034786	  0.154122	
5.65524	  0.013290	  0.054312	  0.244939	
5.68851	  0.018070	  0.078222	  0.352142	
5.72177	  0.023208	  0.104544	  0.465184	
5.75504	  0.028118	  0.130097	  0.571644	
5.78831	  0.032160	  0.151557	  0.663293	
5.82157	  0.034836	  0.166528	  0.736808	
5.85484	  0.036089	  0.175226	  0.792565	
5.8881	  0.036402	  0.178797	  0.832105	
5.92137	  0.036302	  0.178946	  0.855320	
5.95464	  0.036157	  0.177566	  0.863908	
5.9879	  0.036166	  0.176468	  0.864301	
6.02117	  0.036430	  0.177043	  0.862490	
6.05444	  0.036811	  0.178748	  0.861599	
6.0877	  0.037131	  0.181290	  0.862061	
6.12097	  0.037187	  0.184667	  0.860791	
6.15423	  0.037008	  0.188243	  0.854557	
6.1875	  0.036590	  0.190501	  0.839830	
6.22077	  0.035910	  0.189863	  0.820476	
6.25403	  0.035096	  0.186508	  0.803119	
6.2873	  0.034270	  0.181511	  0.790367	
6.32056	  0.033495	  0.175931	  0.781477	
6.35383	  0.032687	  0.169863	  0.776692	
6.3871	  0.031846	  0.163365	  0.778971	
6.42036	  0.031114	  0.157365	  0.788404	
6.45363	  0.030591	  0.152371	  0.801218	
6.4869	  0.030293	  0.148027	  0.812356	
6.52016	  0.030161	  0.143241	  0.818187	
6.55343	  0.030086	  0.137589	  0.813950	
6.58669	  0.029943	  0.131758	  0.798175	
6.61996	  0.029690	  0.126361	  0.773951	
6.65323	  0.029439	  0.122008	  0.746148	
6.68649	  0.029361	  0.119465	  0.718759	
6.71976	  0.029405	  0.119289	  0.694760	
6.75302	  0.029451	  0.121044	  0.676101	
6.78629	  0.029447	  0.123886	  0.664042	
6.81956	  0.029315	  0.127451	  0.658985	
6.85282	  0.029160	  0.132149	  0.660550	
6.88609	  0.029140	  0.138091	  0.667389	
6.91935	  0.029398	  0.144923	  0.677195	
6.95262	  0.029881	  0.151163	  0.686638	
6.98589	  0.030453	  0.155622	  0.694180	
7.01915	  0.031058	  0.158740	  0.700012	
7.05242	  0.031592	  0.161707	  0.706119	
7.08569	  0.031963	  0.164880	  0.713515	
7.11895	  0.032159	  0.168052	  0.721114	
7.15222	  0.032085	  0.170916	  0.728108	
7.18548	  0.031729	  0.172777	  0.734839	
7.21875	  0.031046	  0.172917	  0.739175	
7.25202	  0.030279	  0.172189	  0.740561	
7.28528	  0.029736	  0.171977	  0.740274	
7.31855	  0.029616	  0.172888	  0.738727	
7.35181	  0.030062	  0.175412	  0.736331	
7.38508	  0.031077	  0.178908	  0.734154	
7.41835	  0.032378	  0.181360	  0.730728	
7.45161	  0.033632	  0.181144	  0.725233	
7.48488	  0.034567	  0.177518	  0.718993	
7.51815	  0.035088	  0.170802	  0.715383	
7.55141	  0.035290	  0.162704	  0.718131	
7.58468	  0.035458	  0.155171	  0.727774	
7.61794	  0.035732	  0.149589	  0.742668	
7.65121	  0.036137	  0.147010	  0.760722	
7.68448	  0.036678	  0.147566	  0.780826	
7.71774	  0.037215	  0.150464	  0.800210	
7.75101	  0.037641	  0.154586	  0.815670	
7.78427	  0.037966	  0.158473	  0.828524	
7.81754	  0.038059	  0.160879	  0.838539	
7.85081	  0.037682	  0.161092	  0.841018	
7.88407	  0.036706	  0.159134	  0.834933	
7.91734	  0.035211	  0.155929	  0.824146	
7.9506	  0.033275	  0.152301	  0.812064	
7.98387	  0.031167	  0.149563	  0.800160	
8.01714	  0.029208	  0.148495	  0.789590	
8.0504	  0.027568	  0.148640	  0.780274	
8.08367	  0.026300	  0.149074	  0.770550	
8.11694	  0.025516	  0.148856	  0.758740	
8.1502	  0.025259	  0.147995	  0.743945	
8.18347	  0.025500	  0.147529	  0.729253	
8.21673	  0.026162	  0.148245	  0.718247	
8.25	  0.027085	  0.150895	  0.712421	
8.28327	  0.028148	  0.155485	  0.711873	
8.31653	  0.029297	  0.161032	  0.716191	
8.3498	  0.030522	  0.166597	  0.725116	
8.38306	  0.031737	  0.170560	  0.735286	
8.41633	  0.032849	  0.172371	  0.744747	
8.4496	  0.033803	  0.172924	  0.754450	
8.48286	  0.034507	  0.172456	  0.765974	
8.51613	  0.034983	  0.171509	  0.780238	
8.5494	  0.035296	  0.169999	  0.796180	
8.58266	  0.035463	  0.167445	  0.811725	
8.61593	  0.035478	  0.163127	  0.821772	
8.64919	  0.035346	  0.157497	  0.821726	
8.68246	  0.035153	  0.151904	  0.813488	
8.71573	  0.034914	  0.146843	  0.801421	
8.74899	  0.034466	  0.142084	  0.786056	
8.78226	  0.033783	  0.137789	  0.767354	
8.81552	  0.033033	  0.134916	  0.745303	
8.84879	  0.032486	  0.134373	  0.722865	
8.88206	  0.032330	  0.136542	  0.703668	
8.91532	  0.032487	  0.140840	  0.687043	
8.94859	  0.032791	  0.146310	  0.671095	
8.98185	  0.033155	  0.151788	  0.655325	
9.01512	  0.033530	  0.155973	  0.641104	
9.04839	  0.033819	  0.157915	  0.630036	
9.08165	  0.033906	  0.157630	  0.621871	
9.11492	  0.033759	  0.156216	  0.617117	
9.14819	  0.033431	  0.154529	  0.614489	
9.18145	  0.033098	  0.153197	  0.612572	
9.21472	  0.032844	  0.152542	  0.610919	
9.24798	  0.032610	  0.152683	  0.610115	
9.28125	  0.032371	  0.154177	  0.609848	
9.31452	  0.032195	  0.157040	  0.609961	
9.34778	  0.032260	  0.161104	  0.610267	
9.38105	  0.032681	  0.165976	  0.608338	
9.41431	  0.033427	  0.170505	  0.601937	
9.44758	  0.034367	  0.173612	  0.592360	
9.48085	  0.035376	  0.175338	  0.583170	
9.51411	  0.036310	  0.176143	  0.578506	
9.54738	  0.036949	  0.175597	  0.582559	
9.58065	  0.037307	  0.173900	  0.596792	
9.61391	  0.037373	  0.172206	  0.617924	
9.64718	  0.037197	  0.171435	  0.639939	
9.68044	  0.036859	  0.172133	  0.657818	
9.71371	  0.036467	  0.174426	  0.671452	
9.74698	  0.036088	  0.177698	  0.683364	
9.78024	  0.035687	  0.181046	  0.694244	
9.81351	  0.035166	  0.183592	  0.703442	
9.84677	  0.034456	  0.184529	  0.710094	
9.88004	  0.033684	  0.183313	  0.713843	
9.91331	  0.033017	  0.180420	  0.716200	
9.94657	  0.032596	  0.177033	  0.718385	
9.97984	  0.032468	  0.173951	  0.721123	
10.0131	  0.032500	  0.171145	  0.724322	
10.0464	  0.032621	  0.168908	  0.727523	
10.0796	  0.032787	  0.168399	  0.729369	
10.1129	  0.033030	  0.170201	  0.730680	
10.1462	  0.033306	  0.173650	  0.733183	
10.1794	  0.033550	  0.177874	  0.737104	
10.2127	  0.033782	  0.182962	  0.742954	
10.246	  0.034027	  0.188808	  0.748852	
10.2792	  0.034171	  0.193786	  0.750449	
10.3125	  0.033910	  0.195623	  0.740546	
10.3458	  0.033042	  0.193727	  0.713116	
10.379	  0.031526	  0.188103	  0.666792	
10.4123	  0.029358	  0.177968	  0.604462	
10.4456	  0.026542	  0.162611	  0.530268	
10.4788	  0.023208	  0.142234	  0.448461	
10.5121	  0.019536	  0.118591	  0.361305	
10.5454	  0.015791	  0.093847	  0.273616	
10.5786	  0.012316	  0.070712	  0.192475	
10.6119	  0.009356	  0.051172	  0.124041	
10.6452	  0.007004	  0.036053	  0.070820	
10.6784	  0.005247	  0.025486	  0.032584	
10.7117	  0.004018	  0.018846	  0.007466	
10.745	  0.003227	  0.014931	 -0.007172	
10.7782	  0.002769	  0.012323	 -0.014119	
10.8115	  0.002549	  0.010339	 -0.015917	
10.8448	  0.002478	  0.008733	 -0.014635	
10.878	  0.002490	  0.007369	 -0.011807	
10.9113	  0.002552	  0.006276	 -0.008480	
10.9446	  0.002644	  0.005470	 -0.005301	
10.9778	  0.002759	  0.004925	 -0.002609	
11.0111	  0.002891	  0.004609	 -0.000532	
11.0444	  0.003022	  0.004472	  0.000940	
11.0776	  0.003126	  0.004458	  0.001890	
11.1109	  0.003188	  0.004516	  0.002428	
11.1442	  0.003221	  0.004605	  0.002662	
11.1774	  0.003240	  0.004693	  0.002686	
11.2107	  0.003250	  0.004771	  0.002584	
11.244	  0.003246	  0.004836	  0.002422	
11.2772	  0.003222	  0.004890	  0.002242	
11.3105	  0.003174	  0.004930	  0.002068	
11.3437	  0.003110	  0.004955	  0.001912	
11.377	  0.003051	  0.004967	  0.001783	
11.4103	  0.003005	  0.004970	  0.001686	
11.4435	  0.002975	  0.004965	  0.001620	
11.4768	  0.002959	  0.004951	  0.001579	
